# xmcd
#
# Track frame offsets:
#	150
#	29213
#	42344
#	70599
#	81579
#	95574
#	105905
#	119667
#	131942
#	163009
#	175878
#	185951
#
# Disc length: 2635 seconds
#
# Revision: 1
# Processed by: cddbd v1.5.2PL0 Copyright (c) Steve Scherf et al.
# Submitted via: audiograbber 1.83.01
#
DISCID=b40a490c
DTITLE=Ray Charles - Georgia on my Mind
DYEAR=1900
DGENRE=
TTITLE0=What'd I Say
TTITLE1=Baby Won't To Please Come Home
TTITLE2=I Got A Woman
TTITLE3=A Sentimental Blues
TTITLE4=Kiss Me Baby
TTITLE5=Aint That Fine
TTITLE6=This Love Of Mine
TTITLE7=Tell Me How Do You Feel
TTITLE8=Georgia On My Mind
TTITLE9=Heartbreaker
TTITLE10=I'm Movin' On
TTITLE11=Can't See You Darlin'
EXTD=
EXTT0=
EXTT1=
EXTT2=
EXTT3=
EXTT4=
EXTT5=
EXTT6=
EXTT7=
EXTT8=
EXTT9=
EXTT10=
EXTT11=
PLAYORDER=
